<?xml version="1.0" encoding="UTF-8"?>
<svg version="1.1" xmlns="http://www.w3.org/2000/svg" viewBox="100 100 1080 1080">
<path d="M0 0 C356.4 0 712.8 0 1080 0 C1080 356.4 1080 712.8 1080 1080 C723.6 1080 367.2 1080 0 1080 C0 723.6 0 367.2 0 0 Z " fill="#FEFEFE" transform="translate(0,0)"/>
<path d="M0 0 C0.65983887 0.20463867 1.31967773 0.40927734 1.99951172 0.62011719 C34.07396513 10.64478868 60.26337288 30.72009848 77 60 C77.70962891 61.22976563 77.70962891 61.22976563 78.43359375 62.484375 C90.43959605 84.77589329 91.91840703 115.78557541 85 140 C75.77201771 170.08538086 55.08840085 191.08395002 30.31005859 209.29003906 C23.2760111 214.49681021 16.34618118 219.84443767 9.40039062 225.16796875 C7.30159692 226.76981456 5.19267519 228.35656928 3.078125 229.9375 C-18.71300164 246.38101848 -37.08437199 267.11303275 -41.71466064 294.81060791 C-42.72920396 302.59513913 -42.59060417 310.53992185 -42.6875 318.375 C-42.8421875 328.089375 -42.8421875 328.089375 -43 338 C-63.46 338 -83.92 338 -105 338 C-105.061875 331.090625 -105.12375 324.18125 -105.1875 317.0625 C-105.22846802 313.84898804 -105.22846802 313.84898804 -105.27026367 310.57055664 C-105.35534129 299.01155427 -104.52315661 288.29672275 -102 277 C-101.78228943 276.0013517 -101.78228943 276.0013517 -101.56018066 274.98252869 C-94.96243631 244.86644866 -73.41711182 219.94822263 -49.41796875 201.63671875 C-46.29508994 199.25170598 -43.29962526 196.74134628 -40.3125 194.1875 C-35.24927763 189.92195486 -29.9808391 186.01458571 -24.625 182.125 C-5.11967263 167.8897217 17.87670075 150.35417237 22.546875 125.03515625 C25.10560224 105.81294018 24.0180458 87.77677617 12 72 C-1.79600013 55.04368266 -25.4085096 48.06710511 -46.25 45.34765625 C-79.10775243 42.30146879 -114.13843281 51.06194341 -139.9921875 72.18359375 C-149.02490574 79.80994083 -157.42841807 87.91410168 -165 97 C-170.3149403 94.12222145 -175.00017519 90.85107287 -179.75 87.125 C-186.28988527 82.05587335 -192.89339612 77.0854772 -199.5625 72.1875 C-200.40200195 71.57084473 -201.24150391 70.95418945 -202.10644531 70.31884766 C-204.07004496 68.87797121 -206.03448077 67.43825625 -208 66 C-206.59268536 61.67604873 -204.55242089 59.1555336 -201.37109375 55.9375 C-200.90953384 55.46897614 -200.44797394 55.00045227 -199.97242737 54.51773071 C-198.47043766 53.00181121 -196.9557101 51.4996648 -195.4375 50 C-194.92034424 49.48588562 -194.40318848 48.97177124 -193.87036133 48.44207764 C-180.90595528 35.59040119 -167.0497794 24.75937113 -151 16 C-150.37303223 15.65630371 -149.74606445 15.31260742 -149.10009766 14.95849609 C-105.12091875 -8.82217639 -47.8124005 -15.43012706 0 0 Z " fill="#010101" transform="translate(518,278)"/>
<path d="M0 0 C2.66988681 2.36050286 3.96715611 4.69046268 5.42578125 7.92578125 C5.88605713 8.93600342 6.34633301 9.94622559 6.82055664 10.98706055 C7.31289795 12.08445557 7.80523926 13.18185059 8.3125 14.3125 C9.37937795 16.65923185 10.44712306 19.00556963 11.515625 21.3515625 C11.9332888 22.2717643 11.9332888 22.2717643 12.35939026 23.21055603 C15.99638469 31.21617053 19.74089102 39.17172356 23.47476196 47.13247681 C24.33961985 48.97718531 25.20309642 50.82253538 26.06640625 52.66796875 C26.56084229 53.72266357 27.05527832 54.7773584 27.56469727 55.86401367 C29 59 29 59 30.17529297 62.61962891 C32.65851702 67.21993935 35.46584879 68.36901431 40.12890625 70.41796875 C41.35038612 70.98777466 41.35038612 70.98777466 42.59654236 71.5690918 C45.24238088 72.79712883 47.90167941 73.99232142 50.5625 75.1875 C52.37987117 76.02370359 54.19627569 76.86201119 56.01171875 77.70239258 C59.63255169 79.37413885 63.25880254 81.03303034 66.89111328 82.6796875 C71.41651071 84.73137838 75.92849694 86.81041485 80.43359375 88.90625 C86.2801123 91.62384578 92.1353129 94.32182558 98 97 C98 97.66 98 98.32 98 99 C94.49531636 100.66170626 90.98952 102.32099194 87.48193359 103.9765625 C84.42524532 105.4195807 81.37290148 106.8713381 78.32275391 108.328125 C70.66399531 111.97006469 62.99649931 115.46809454 55.12109375 118.6171875 C53.03706094 119.47350727 50.95462104 120.33359149 48.87258911 121.19476318 C47.56093711 121.72349578 46.24142862 122.23321706 44.91427612 122.72174072 C36.98541188 125.64546746 32.2821815 128.73839186 28.66796875 136.30859375 C27.71704367 138.44718828 26.81144189 140.59764104 25.93005371 142.76580811 C24.67322823 145.78497707 23.2563422 148.71607045 21.83355713 151.65982056 C20.73965646 153.92347723 19.66489921 156.19528359 18.59570312 158.47070312 C18.24000244 159.22746338 17.88430176 159.98422363 17.51782227 160.76391602 C17.16131592 161.52244873 16.80480957 162.28098145 16.4375 163.0625 C15.714358 164.59708311 14.991051 166.13158848 14.26757812 167.66601562 C9.82202505 177.09994323 5.40336117 186.54631357 1 196 C-1.80665638 193.55065711 -3.10966441 191.0092646 -4.64453125 187.63671875 C-5.15008545 186.53593994 -5.65563965 185.43516113 -6.17651367 184.30102539 C-6.71638916 183.10856201 -7.25626465 181.91609863 -7.8125 180.6875 C-8.3798838 179.44684948 -8.94801187 178.20653909 -9.5168457 176.96655273 C-10.41131176 175.01646103 -11.3052444 173.06614197 -12.19676208 171.11470032 C-14.40594028 166.28092257 -16.64397601 161.46124921 -18.8984375 156.6484375 C-19.21675034 155.96870377 -19.53506317 155.28897003 -19.86302185 154.58863831 C-21.11032274 151.92617782 -22.35828963 149.26403123 -23.60733032 146.60238647 C-24.47256524 144.75765586 -25.33592876 142.91204785 -26.19921875 141.06640625 C-26.69252686 140.01396729 -27.18583496 138.96152832 -27.6940918 137.87719727 C-29 135 -29 135 -29.70703125 132.36889648 C-31.67529542 128.76276597 -34.88548749 127.64602515 -38.48828125 126.03125 C-39.25133072 125.67352509 -40.01438019 125.31580017 -40.80055237 124.94723511 C-43.29733665 123.78187492 -45.80440216 122.64078018 -48.3125 121.5 C-50.03135464 120.70391566 -51.74961334 119.9065434 -53.46728516 119.10791016 C-58.63350504 116.7134492 -63.81451497 114.35239566 -69 112 C-69.78030579 111.64546753 -70.56061157 111.29093506 -71.36456299 110.92565918 C-80.22216341 106.90304542 -89.09830639 102.92417558 -98 99 C-98 98.34 -98 97.68 -98 97 C-96.96335205 96.51926025 -96.96335205 96.51926025 -95.90576172 96.02880859 C-93.18561355 94.76714184 -90.4656637 93.50504835 -87.74575806 92.24285889 C-85.86547343 91.37058055 -83.9848704 90.49899134 -82.10424805 89.62744141 C-75.31862766 86.48087258 -68.54155355 83.31735218 -61.77734375 80.125 C-59.7717324 79.18078007 -57.76593402 78.23695867 -55.7600708 77.29327393 C-54.47417754 76.68697902 -53.18912386 76.07889982 -51.90496826 75.46893311 C-39.27111323 69.46902035 -39.27111323 69.46902035 -32.6784668 68.01806641 C-29.98458962 66.38410745 -29.85441875 63.95421039 -29 61 C-27.93854599 58.60992095 -26.85476639 56.24835019 -25.7265625 53.890625 C-25.40638657 53.21404343 -25.08621063 52.53746185 -24.7563324 51.84037781 C-23.71553147 49.64216026 -22.67025131 47.44610435 -21.625 45.25 C-20.17661864 42.19484562 -18.73071447 39.13852225 -17.28515625 36.08203125 C-16.92330734 35.31762222 -16.56145844 34.5532132 -16.18864441 33.76564026 C-13.86917952 28.85952466 -11.57539737 23.9423801 -9.30859375 19.01171875 C-9.02838379 18.40222382 -8.74817383 17.79272888 -8.45947266 17.1647644 C-7.15048098 14.31430111 -5.84554345 11.46202274 -4.54345703 8.60839844 C-4.08696777 7.61227539 -3.63047852 6.61615234 -3.16015625 5.58984375 C-2.56666382 4.28841431 -2.56666382 4.28841431 -1.96118164 2.96069336 C-1 1 -1 1 0 0 Z " fill="#010101" transform="translate(737,305)"/>
<path d="M0 0 C9.03330263 7.74478905 17.39266217 17.88397648 18.45263672 30.16992188 C19.22625333 46.13017827 16.76674395 59.67994513 6.07421875 72.26953125 C-3.46435078 82.25773032 -14.5972133 87.27499691 -28.28125 88.1953125 C-41.05442839 88.45543082 -50.5759462 85.70073056 -60.73828125 77.95703125 C-61.76953125 77.21453125 -62.80078125 76.47203125 -63.86328125 75.70703125 C-73.73364262 66.26581602 -78.82714227 54.97085399 -79.32983398 41.44458008 C-79.43653317 31.714705 -78.90298343 23.4644054 -73.73828125 14.95703125 C-73.30386719 14.16683594 -72.86945313 13.37664063 -72.421875 12.5625 C-65.84239048 1.55920252 -55.90965375 -5.13451413 -44.05078125 -9.35546875 C-28.51773773 -12.66372346 -12.66173994 -9.44663336 0 0 Z " fill="#010101" transform="translate(476.73828125,702.04296875)"/>
<path d="M0 0 C2.4123702 2.99462082 4.04828625 5.98345229 5.63671875 9.48046875 C6.13236328 10.56392578 6.62800781 11.64738281 7.13867188 12.76367188 C7.64978516 13.89353516 8.16089844 15.02339844 8.6875 16.1875 C10.22171011 19.55552351 11.75892058 22.91915187 13.34179688 26.26464844 C14.55920076 28.89781518 15.54624756 31.54105664 16.47070312 34.29003906 C19.77536124 43.45184769 23.47233435 48.34993928 32.3203125 52.7109375 C35.88407044 54.36373954 39.49425592 55.87647539 43.125 57.375 C44.96711966 58.18232671 46.8069926 58.9948002 48.64453125 59.8125 C52.00826867 61.3023495 55.38203759 62.760537 58.77392578 64.18505859 C62.25609607 65.6560581 65.64108985 67.26226093 69 69 C67.41908454 72.16183091 64.21319888 72.89735815 61.10546875 74.265625 C60.4028743 74.58150574 59.70027985 74.89738647 58.97639465 75.22283936 C56.71609299 76.2379663 54.45206935 77.24443397 52.1875 78.25 C47.11079521 80.51505101 42.0404562 82.79311996 36.98312378 85.10113525 C35.12373999 85.94391398 33.25562016 86.76734325 31.38696289 87.58935547 C25.34624656 90.3718739 21.73371878 92.23391422 19.0625 98.625 C18.77294434 99.27871582 18.48338867 99.93243164 18.18505859 100.60595703 C17.50841249 102.13394447 16.84747968 103.6689454 16.19873047 105.20898438 C13.92202982 110.50984829 11.45098829 115.72395728 9.01559448 120.95330811 C8.13282549 122.85811445 7.26053961 124.76740526 6.39086914 126.67822266 C5.85196045 127.85433105 5.31305176 129.03043945 4.7578125 130.2421875 C4.2745752 131.3029248 3.79133789 132.36366211 3.29345703 133.45654297 C2 136 2 136 0 138 C-0.71295974 136.61393542 -1.42365399 135.22668471 -2.12695312 133.83569336 C-2.8148376 132.48432343 -3.51482043 131.13906681 -4.22460938 129.79907227 C-6.7559644 124.89794912 -8.73495948 120.00596396 -10.5234375 114.78515625 C-15.44520483 101.10022902 -20.10018076 91.3865151 -33.6796875 84.90258789 C-39.02856875 82.53027529 -44.476454 80.46013493 -49.98779297 78.50048828 C-56.52455495 76.13276138 -62.75135852 73.03194171 -69 70 C-65.12449212 66.6819913 -60.59234382 64.80585466 -56 62.69140625 C-54.20822992 61.85373678 -52.4165665 61.01583916 -50.625 60.17773438 C-47.80880185 58.86673711 -44.99137846 57.55851298 -42.171875 56.25463867 C-39.44433013 54.99110161 -36.72195536 53.71693019 -34 52.44140625 C-33.15824219 52.05586075 -32.31648437 51.67031525 -31.44921875 51.27308655 C-23.45301734 47.51254688 -20.40968982 43.41565767 -16.77734375 35.5078125 C-16.39058975 34.68425262 -16.00383575 33.86069275 -15.60536194 33.01217651 C-14.37456932 30.38684809 -13.15578638 27.7561518 -11.9375 25.125 C-10.71292541 22.50232324 -9.48595552 19.88077591 -8.25892639 17.25924683 C-7.49781758 15.63073602 -6.7386326 14.00132425 -5.98167419 12.37088013 C-4.05033927 8.21368864 -2.07439038 4.08854733 0 0 Z " fill="#010101" transform="translate(612,540)"/>
</svg>
